<svg id="Layer_3" data-name="Layer 3" xmlns="http://www.w3.org/2000/svg" viewBox="0 0 978.258 916.556">
  <g>
    <g opacity="0.7">
      <rect x="659.897" y="7.983" width="172.061" height="203.958" fill="#f4f4f4"></rect>
      <rect x="831.958" y="7.983" width="5.582" height="203.958" transform="translate(1669.498 219.924) rotate(180)" fill="#f4f4f4"></rect>
      <rect x="831.958" y="7.983" width="5.582" height="203.958" transform="translate(1669.498 219.924) rotate(180)" fill="#292a2e" opacity="0.05"></rect>
      <rect x="691.24" y="48.78" width="109.375" height="122.365" fill="#292a2e" opacity="0.05"></rect>
      <rect x="794.915" y="48.78" width="5.7" height="122.365" fill="#292a2e" opacity="0.03"></rect>
      <rect x="831.958" y="267.016" width="140.718" height="142.01" fill="#f4f4f4"></rect>
      <rect x="857.592" y="292.885" width="89.451" height="90.272" fill="#292a2e" opacity="0.05"></rect>
      <rect x="972.676" y="267.016" width="5.582" height="142.01" transform="translate(1950.934 676.042) rotate(-180)" fill="#f4f4f4"></rect>
      <rect x="972.676" y="267.016" width="5.582" height="142.01" transform="translate(1950.934 676.042) rotate(-180)" fill="#292a2e" opacity="0.05"></rect>
      <rect x="941.342" y="292.885" width="5.7" height="90.272" fill="#292a2e" opacity="0.03"></rect>
    </g>
    <g opacity="0.7">
      <rect id="c_3_c" x="74.579" width="405.081" height="405.081" fill="#f4f4f4"></rect>
      <rect id="c_3_c-2" data-name="c_3_c" x="69.936" width="4.643" height="405.081" fill="#f4f4f4"></rect>
      <rect id="c_3_c-3" data-name="c_3_c" x="69.936" width="4.643" height="405.081" fill="#292a2e" opacity="0.05"></rect>
      <polygon id="c_3_c-4" data-name="c_3_c" points="172.712 279.134 172.712 173.152 259.527 173.152 259.527 234.725 394.004 234.725 394.004 343.749 451.159 343.749 451.159 405.081 394.004 405.081 382.994 405.081 94.065 405.081 94.065 279.134 172.712 279.134" fill="#292a2e" opacity="0.05"></polygon>
      <g id="c_3_wh">
        <rect id="c_3_wh-2" data-name="c_3_wh" x="185.164" y="184.659" width="63.22" height="11.507" fill="#fffffa" opacity="0.34"></rect>
        <rect id="c_3_wh-3" data-name="c_3_wh" x="185.164" y="208.505" width="63.22" height="11.507" fill="#fffffa" opacity="0.34"></rect>
        <rect id="c_3_wh-4" data-name="c_3_wh" x="185.164" y="232.35" width="63.22" height="11.507" fill="#fffffa" opacity="0.34"></rect>
      </g>
      <g id="c_3_wh-5" data-name="c_3_wh">
        <rect id="c_3_wh-6" data-name="c_3_wh" x="105.276" y="290.304" width="11.652" height="11.507" fill="#fffffa" opacity="0.34"></rect>
        <rect id="c_3_wh-7" data-name="c_3_wh" x="105.276" y="314.15" width="11.652" height="11.507" fill="#fffffa" opacity="0.34"></rect>
        <rect id="c_3_wh-8" data-name="c_3_wh" x="105.276" y="337.995" width="11.652" height="11.507" fill="#fffffa" opacity="0.34"></rect>
        <rect id="c_3_wh-9" data-name="c_3_wh" x="126.833" y="290.304" width="11.652" height="11.507" fill="#fffffa" opacity="0.34"></rect>
        <rect id="c_3_wh-10" data-name="c_3_wh" x="126.833" y="314.15" width="11.652" height="11.507" fill="#fffffa" opacity="0.34"></rect>
        <rect id="c_3_wh-11" data-name="c_3_wh" x="126.833" y="337.995" width="11.652" height="11.507" fill="#fffffa" opacity="0.34"></rect>
        <rect id="c_3_wh-12" data-name="c_3_wh" x="147.807" y="290.304" width="11.652" height="11.507" fill="#fffffa" opacity="0.34"></rect>
        <rect id="c_3_wh-13" data-name="c_3_wh" x="147.807" y="314.15" width="11.652" height="11.507" fill="#fffffa" opacity="0.34"></rect>
        <rect id="c_3_wh-14" data-name="c_3_wh" x="147.807" y="337.995" width="11.652" height="11.507" fill="#fffffa" opacity="0.34"></rect>
      </g>
      <polygon points="74.579 200.268 156.088 200.268 156.088 0 162.829 0 162.829 200.268 382.994 200.268 382.994 0 389.735 0 389.735 200.268 479.66 200.268 479.66 207.009 389.735 207.009 389.735 405.081 382.994 405.081 382.994 207.009 162.829 207.009 162.829 405.081 156.088 405.081 156.088 207.009 74.579 207.009 74.579 200.268" fill="#fff"></polygon>
      <rect id="c_3_c-5" data-name="c_3_c" x="58.442" y="404.592" width="437.355" height="13.471" fill="#f4f4f4"></rect>
      <rect id="c_3_c-6" data-name="c_3_c" x="58.442" y="404.592" width="437.355" height="13.471" fill="#292a2e" opacity="0.1"></rect>
      <rect id="c_3_c-7" data-name="c_3_c" x="52.128" y="404.592" width="6.314" height="13.471" fill="#292a2e" opacity="0.1"></rect>
      <rect id="c_3_c-8" data-name="c_3_c" x="52.128" y="404.592" width="6.314" height="13.471" fill="#292a2e" opacity="0.1"></rect>
    </g>
    <g>
      <g>
        <path d="M308.373,50.3H782.51a25.752,25.752,0,0,1,25.752,25.752V643.932a26.312,26.312,0,0,1-26.312,26.312H308.934a26.312,26.312,0,0,1-26.312-26.312V76.049A25.752,25.752,0,0,1,308.373,50.3Z" fill="#fff"></path>
        <path d="M781.95,671.243H308.934a27.312,27.312,0,0,1-27.312-27.312V75.049A25.751,25.751,0,0,1,307.373,49.3H783.51a25.752,25.752,0,0,1,25.752,25.751V643.931A27.312,27.312,0,0,1,781.95,671.243ZM283.622,76.006V643.931a25.311,25.311,0,0,0,25.312,25.312H781.95a25.312,25.312,0,0,0,25.312-25.312V75.756A24.459,24.459,0,0,0,782.8,51.3H308.33A24.708,24.708,0,0,0,283.622,76.006Z" fill="#292a2e"></path>
      </g>
      <path d="M384.588,173.577H327.129A12.093,12.093,0,0,1,315.05,161.5v-57.46a12.093,12.093,0,0,1,12.079-12.079h57.459a12.093,12.093,0,0,1,12.08,12.079V161.5A12.093,12.093,0,0,1,384.588,173.577ZM327.129,93.959a10.091,10.091,0,0,0-10.079,10.079V161.5a10.091,10.091,0,0,0,10.079,10.079h57.459a10.091,10.091,0,0,0,10.08-10.079v-57.46a10.091,10.091,0,0,0-10.08-10.079Z" fill="#292a2e"></path>
      <path d="M384.588,287.415H327.129a12.093,12.093,0,0,1-12.079-12.079V217.877a12.093,12.093,0,0,1,12.079-12.08h57.459a12.094,12.094,0,0,1,12.08,12.08v57.459A12.093,12.093,0,0,1,384.588,287.415ZM327.129,207.8a10.091,10.091,0,0,0-10.079,10.08v57.459a10.09,10.09,0,0,0,10.079,10.079h57.459a10.091,10.091,0,0,0,10.08-10.079V217.877a10.092,10.092,0,0,0-10.08-10.08Z" fill="#292a2e"></path>
      <path d="M384.588,401.253H327.129a12.093,12.093,0,0,1-12.079-12.079V331.715a12.093,12.093,0,0,1,12.079-12.079h57.459a12.093,12.093,0,0,1,12.08,12.079v57.459A12.093,12.093,0,0,1,384.588,401.253Zm-57.459-79.617a10.09,10.09,0,0,0-10.079,10.079v57.459a10.09,10.09,0,0,0,10.079,10.079h57.459a10.091,10.091,0,0,0,10.08-10.079V331.715a10.091,10.091,0,0,0-10.08-10.079Z" fill="#292a2e"></path>
      <path d="M384.588,513.527H327.129a12.093,12.093,0,0,1-12.079-12.079V443.989a12.093,12.093,0,0,1,12.079-12.08h57.459a12.094,12.094,0,0,1,12.08,12.08v57.459A12.093,12.093,0,0,1,384.588,513.527Zm-57.459-79.618a10.09,10.09,0,0,0-10.079,10.08v57.459a10.091,10.091,0,0,0,10.079,10.079h57.459a10.091,10.091,0,0,0,10.08-10.079V443.989a10.091,10.091,0,0,0-10.08-10.08Z" fill="#292a2e"></path>
      <path d="M384.588,625.8H327.129a12.093,12.093,0,0,1-12.079-12.08V556.262a12.093,12.093,0,0,1,12.079-12.08h57.459a12.094,12.094,0,0,1,12.08,12.08v57.459A12.094,12.094,0,0,1,384.588,625.8Zm-57.459-79.619a10.091,10.091,0,0,0-10.079,10.08v57.459a10.091,10.091,0,0,0,10.079,10.08h57.459a10.092,10.092,0,0,0,10.08-10.08V556.262a10.092,10.092,0,0,0-10.08-10.08Z" fill="#292a2e"></path>
      <path d="M345.638,269.594a3.991,3.991,0,0,1-2.772-1.117l-16.748-16.1a4,4,0,0,1,5.544-5.768L345.57,259.98,380.431,224.8a4,4,0,0,1,5.683,5.63l-37.635,37.975A3.986,3.986,0,0,1,345.638,269.594Z" fill="#2B2D42"></path>
      <path d="M345.638,383.432a3.99,3.99,0,0,1-2.772-1.116l-16.748-16.1a4,4,0,0,1,5.544-5.768l13.908,13.367,34.861-35.177a4,4,0,0,1,5.683,5.631l-37.635,37.975A3.986,3.986,0,0,1,345.638,383.432Z" fill="#2B2D42"></path>
      <rect x="425.281" y="114.977" width="342.57" height="5.582" rx="2.791" fill="#262626" opacity="0.5"></rect>
      <rect x="425.281" y="144.977" width="222.57" height="5.582" rx="2.791" fill="#262626" opacity="0.5"></rect>
      <rect x="425.281" y="228.815" width="342.57" height="5.582" rx="2.791" fill="#262626" opacity="0.5"></rect>
      <rect x="425.281" y="258.815" width="222.57" height="5.582" rx="2.791" fill="#262626" opacity="0.5"></rect>
      <rect x="425.281" y="342.653" width="342.57" height="5.582" rx="2.791" fill="#262626" opacity="0.5"></rect>
      <rect x="425.281" y="372.653" width="222.57" height="5.582" rx="2.791" fill="#262626" opacity="0.5"></rect>
      <rect x="425.281" y="454.927" width="342.57" height="5.582" rx="2.791" fill="#262626" opacity="0.5"></rect>
      <rect x="425.281" y="484.927" width="222.57" height="5.582" rx="2.791" fill="#262626" opacity="0.5"></rect>
      <rect x="425.281" y="567.2" width="342.57" height="5.582" rx="2.791" fill="#262626" opacity="0.5"></rect>
      <rect x="425.281" y="597.2" width="222.57" height="5.582" rx="2.791" fill="#262626" opacity="0.5"></rect>
    </g>
    <g>
      <g>
        <path d="M342.752,153.226a3.548,3.548,0,0,1,3.683-2.189c0-.062-.054-.212.054-.211l-2.5-1.58a3.611,3.611,0,0,1-1.458-4.516,3.477,3.477,0,0,1,4.3-1.811c-.008-.034.013-.068.016-.1l-1.028-.649a3.566,3.566,0,0,1-1.506-4.252,3.484,3.484,0,0,1,5.113-1.7l2.374,1.5c.006-.014,0-.029.006-.042s.033-.019.045-.034a3.48,3.48,0,0,1-.483-4.313c.974-1.793,3.476-1.585,5.011-.616l4.6,3.429a5.366,5.366,0,0,1,2.15,4.594c-.409,7.648-1.956,27.6-6.855,24.5l-12.059-7.614A3.771,3.771,0,0,1,342.752,153.226Z" fill="#E98862"></path>
        <path d="M345.638,154.616a3.991,3.991,0,0,1-2.772-1.117l-16.748-16.1a4,4,0,1,1,5.544-5.767L345.57,145l34.861-35.177a4,4,0,1,1,5.683,5.631l-37.635,37.975A3.986,3.986,0,0,1,345.638,154.616Z" fill="#2B2D42"></path>
        <path d="M334.113,144.852a4.332,4.332,0,0,1,5.135-3.631,4.5,4.5,0,0,1,3.406,5.108l-.12,6.141a5.318,5.318,0,0,0,4.571,5.37h0a5.319,5.319,0,0,0,5.843-3.743l3.133-10.483-3.407-5.087c1.192-1.92,2.192-6.885,4.257-5.406,1.747,1.086,5.714,3.712,6.8,6.2.021.01,2.052,21.357.947,23.137L354.9,188.614c-4.691,7.552-27.329,1.708-27.329,1.708Z" fill="#E98862"></path>
        <path d="M345.57,145l34.861-35.177a4,4,0,1,1,5.683,5.631l-37.635,37.975" fill="#2B2D42"></path>
      </g>
      <path d="M167.648,326.809l141.087-11.873c10.388.273,19.433-8.364,23.243-18.056l36.964-115.858-48.354-19.008-32.629,99.243-124.081,8.684Z" fill="#EF233C"></path>
      <g>
        <path d="M85.728,872.3s4.515,23.4,26.428,24.708,17.161,18.761,17.161,18.761H45.578V873.931Z" fill="#EF233C"></path>
        <path d="M59.9,445.368s.263-7.035.207,8.924c-.207,59.529-1.24,127.525-3.764,167.315-4.057,63.964-14.46,265.628-14.46,265.628l55.026-.462L150.241,442.95Z" fill="#262626"></path>
        <path d="M122.039,515.567s2.28,43.2,2.7,53.341c.978,23.455,1.318,47.739,1.318,75.273L134.733,572S128.386,549.38,122.039,515.567Z" fill="#0a0a0a"></path>
        <path d="M183.689,872.3s4.515,23.4,26.428,24.708,17.161,18.761,17.161,18.761H143.539V873.931Z" fill="#EF233C"></path>
        <path d="M210.332,449.991s4.874,203.456,4.16,213.4l-20.463,222.3-54.117,1,5.274-231.343s-3.72-63.816-19.139-123.074a459.359,459.359,0,0,1-14.169-92.937h0Z" fill="#262626"></path>
        <path d="M59.3,445.362l-.18.01S59.251,441.9,59.3,445.362Z" fill="#333"></path>
        <path d="M218.078,343.06c-1.134,13.332-6.655,90.509-7.746,106.931H59.96c-.849-14.811-4.664-79.576-7.885-108.539-3.075-27.638-9.108-41.475-4.686-49.646,7.226-13.354,26.972-21.07,40.436-22.893C96.047,267.8,166.141,267,166.309,267c5.506,0,37.566,2.588,44.653,8.046C223.785,284.922,220.06,319.811,218.078,343.06Z" fill="#EF233C"></path>
        <path d="M220.155,322.783a.5.5,0,0,0,.5-.471l1.213-19.171a.5.5,0,0,0-.47-.528.506.506,0,0,0-.528.47l-1.213,19.171a.5.5,0,0,0,.47.528Z" fill="#0c0c0c"></path>
      </g>
      <g>
        <path d="M27.45,449.119A27.454,27.454,0,0,1,1.7,412.169C3.249,407.956,39.669,311.513,46.6,293.643l51.339,20.8c-3.9,10.047-18.023,48.131-29.371,78.811l18.852-2.049,5.934,54.585-62.935,3.167A27.478,27.478,0,0,1,27.45,449.119Z" fill="#EF233C"></path>
        <path id="h_3_sk" d="M184.224,265.176c-.168-.022-4.781,17.336-40.778,14.634-24.92-1.867-31-18.829-31.568-18.829,2.687-.571,7.051-1.164,8.244-1.8,3.924-2.109,6.783-4.675,8.221-10.184,1.125-4.307,1.7-20.89,1.7-29.21l38.347,8.617c-.535,9.385-4.276,31.143,8.836,34.994C179.407,264.034,181.757,264.619,184.224,265.176Z" fill="#E98862"></path>
        <path d="M167.062,246.854c-15.117,1.193-34.537-5.19-38.226-25.359l-3.328-18.2c-3.689-20.169,3.914-38.457,22.905-41.93h0c18.99-3.473,36.175,10.282,39.863,30.451l1.474,8.057C191.165,207.613,194.034,244.726,167.062,246.854Z" fill="#E98862"></path>
        <path d="M181.079,228.336c-2.713-13.634-3.958-22.731-3.813-32.327,3.822-6.7,2.817-14.4,1.948-17.724a14.735,14.735,0,0,0,8.839,2.266s-6.321-25.368-27.805-32.194c-3.951-1.537-14.038-3.479-27.431-1.642-11.391,1.562-39.471,10.079-43.483,41.692h0v.018c-.132,1.049-2.828,30.176-8.2,44.151-7.225,18.786-17.37,24.623-17.113,46.3.331,27.881,51.588,31.593,82.5,29.507s48.174-12.251,48.4-32.344C195.167,253.524,186.509,255.615,181.079,228.336Z" fill="#0a0a0a"></path>
      </g>
      <rect x="57.603" y="341.995" width="1" height="108.028" transform="translate(-13.507 2.218) rotate(-1.96)" fill="#0c0c0c"></rect>
    </g>
    <path d="M955.491,916.47H15.072a.7.7,0,0,1,0-1.4H955.491a.7.7,0,0,1,0,1.4Z" fill="#292a2e"></path>
    <g>
      <path d="M858.421,785.415a1,1,0,0,1-.707-.293c-1.409-1.409-3.705-27.259-9.891-104.224-2.531-31.492-4.923-61.237-6.667-79.315-.125-1.291-.625-1.441-.79-1.49-2.388-.721-9.652,5.007-13.707,10.022a1,1,0,1,1-1.555-1.258c2.682-3.316,11.421-12.009,15.837-10.68.891.268,2,1.042,2.206,3.214,1.746,18.093,4.137,47.847,6.669,79.347,3.76,46.77,8.018,99.756,9.417,103.093a1,1,0,0,1-.812,1.584Z" fill="#494949"></path>
      <ellipse cx="820.825" cy="612.601" rx="38.507" ry="28.398" transform="translate(-202.787 647.987) rotate(-38.715)" fill="#2B2D42"></ellipse>
      <ellipse cx="820.825" cy="612.601" rx="38.507" ry="28.398" transform="translate(-202.787 647.987) rotate(-38.715)" fill="#fff" opacity="0.2"></ellipse>
      <path d="M795.431,639.793a.5.5,0,0,1-.384-.819l47.291-57.029a.5.5,0,1,1,.769.639l-47.291,57.029A.5.5,0,0,1,795.431,639.793Z" fill="#fff"></path>
      <path d="M868.736,773.189a1,1,0,0,1-.944-1.329l17.763-51.087a9.5,9.5,0,0,1,15.529-3.748L910.475,726a1,1,0,0,1-1.382,1.446l-9.391-8.971a7.5,7.5,0,0,0-12.258,2.958L869.68,772.517A1,1,0,0,1,868.736,773.189Z" fill="#494949"></path>
      <ellipse cx="912.815" cy="724.083" rx="28.398" ry="38.507" transform="translate(-252.314 722.871) rotate(-38.363)" fill="#2B2D42"></ellipse>
      <path d="M850.351,782.157a1,1,0,0,1-.972-.768l-29.81-124.644a4.75,4.75,0,0,0-8.213-2l-9.189,10.619a1,1,0,0,1-1.513-1.309l9.19-10.619a6.75,6.75,0,0,1,11.67,2.848l29.811,124.644a1,1,0,0,1-.974,1.233Z" fill="#494949"></path>
      <ellipse cx="811.37" cy="688.21" rx="38.507" ry="28.398" transform="matrix(0.17, -0.985, 0.985, 0.17, -5.027, 1370.449)" fill="#2B2D42"></ellipse>
      <path d="M858.423,785.415a1.046,1.046,0,0,1-.124-.008,1,1,0,0,1-.87-1.115l19.036-154.557a8.806,8.806,0,0,1,15.341-4.753l21.758,24.643a1,1,0,1,1-1.5,1.325l-21.758-24.643a6.806,6.806,0,0,0-11.857,3.672L859.414,784.537A1,1,0,0,1,858.423,785.415Z" fill="#494949"></path>
      <ellipse cx="902.184" cy="644.682" rx="28.398" ry="38.507" transform="translate(-98.63 1122.093) rotate(-61.051)" fill="#2B2D42"></ellipse>
      <ellipse cx="912.815" cy="724.083" rx="28.398" ry="38.507" transform="translate(-252.314 722.871) rotate(-38.363)" fill="#fff" opacity="0.2"></ellipse>
      <ellipse cx="811.37" cy="688.21" rx="38.507" ry="28.398" transform="matrix(0.17, -0.985, 0.985, 0.17, -5.027, 1370.449)" fill="#fff" opacity="0.5"></ellipse>
      <ellipse cx="902.184" cy="644.682" rx="28.398" ry="38.507" transform="translate(-98.63 1122.093) rotate(-61.051)" fill="#fff" opacity="0.5"></ellipse>
      <polygon points="882.77 916.556 834.073 916.556 826.004 760.752 890.839 760.752 882.77 916.556" fill="#292a2e"></polygon>
      <polygon points="882.77 916.556 834.073 916.556 826.004 760.752 890.839 760.752 882.77 916.556" fill="#fff" opacity="0.3"></polygon>
      <path d="M936.715,754.776a.5.5,0,0,1-.393-.19l-47.8-60.386a.5.5,0,0,1,.785-.621l47.8,60.386a.5.5,0,0,1-.391.811Z" fill="#fff"></path>
      <path d="M932.7,668.159a.5.5,0,0,1-.294-.1L871.24,623.4a.5.5,0,1,1,.59-.808L933,667.255a.5.5,0,0,1-.3.9Z" fill="#fff"></path>
      <path d="M802.327,725.507a.527.527,0,0,1-.13-.017.5.5,0,0,1-.354-.612l19.472-72.953a.5.5,0,1,1,.966.258l-19.472,72.953A.5.5,0,0,1,802.327,725.507Z" fill="#fff"></path>
    </g>
  </g>
</svg>